<?xml version="1.0" encoding="utf-8"?>
<!-- Generator: Adobe Illustrator 16.2.1, SVG Export Plug-In . SVG Version: 6.00 Build 0)  -->
<!DOCTYPE svg PUBLIC "-//W3C//DTD SVG 1.1//EN" "http://www.w3.org/Graphics/SVG/1.1/DTD/svg11.dtd">
<svg version="1.1" xmlns="http://www.w3.org/2000/svg" xmlns:xlink="http://www.w3.org/1999/xlink" x="0px" y="0px" width="2010px"
	 height="296px" viewBox="0 0 2010 296" enable-background="new 0 0 2010 296" xml:space="preserve">
<g id="Logo" enable-background="new    ">
	<g id="Shape_1">
		<g>
			<path fill="#860000" d="M100.823,150.271c0,0.022,0.011,0.043,0.011,0.063l5.614,50.741
				c23.865-19.382,62.612-33.938,99.345-33.938c36.923,0,75.83,14.638,99.712,34.217l5.648-51.02c0-0.021,0.005-0.041,0.005-0.063
				c0.041-15.441,7.434-29.021,18.704-37.836C323.384,49.3,270.423-0.003,205.793-0.003c-64.528,0-117.428,49.135-124.046,112.125
				C93.24,120.923,100.785,134.655,100.823,150.271z M205.793,174.723c-40.22,0-75.901,13.032-98.724,35.18l6.309,49.688h185.227
				l6.274-49.353C282.073,187.846,246.221,174.723,205.793,174.723z M96.235,157.54c0-0.021-0.006-0.038-0.006-0.061
				c-0.07-26.612-21.581-48.162-48.118-48.162c-26.58,0-48.123,21.616-48.123,48.288c0,26.091,20.632,47.291,46.413,48.203
				l30.007,70.118c0,19.533-1.042,19.847,18.424,19.847c19.465,0,14.218-2.953,14.218-22.487L96.235,157.54z M363.874,109.317
				c-26.538,0-48.047,21.55-48.117,48.162c0,0.022-0.006,0.04-0.006,0.061l-12.813,115.746c0,19.534-5.249,22.716,14.217,22.716
				c19.464,0,18.424-0.542,18.424-20.075l30.007-70.118C391.367,204.896,412,183.696,412,157.605
				C412,130.934,390.453,109.317,363.874,109.317z"/>
		</g>
	</g>
</g>
<g id="Text">
	<g>
		<path d="M604.209,211.314c0,1.765-0.506,2.648-1.515,2.648c-2.336,0-6.155-0.222-11.458-0.662
			c-3.852-0.316-6.408-0.473-7.67-0.473c-1.832,0-4.704,0.189-8.617,0.567c-3.915,0.379-6.787,0.567-8.617,0.567l-28.692-46.668
			c-4.041-6.46-7.307-10.608-9.8-12.446c-2.495-1.836-7.497-2.755-15.009-2.755v40.679c0,4.352,0.552,7.426,1.657,9.224
			c1.104,1.798,3.061,3.217,5.871,4.257c2.808,1.041,6.833,1.878,12.073,2.507c1.073,0.128,1.61,0.979,1.61,2.555
			c0,1.765-0.506,2.648-1.515,2.648c-4.23,0-9.28-0.188-15.151-0.567c-5.619-0.378-10.354-0.567-14.204-0.567
			c-3.851,0-8.555,0.189-14.109,0.567c-5.809,0.379-10.828,0.567-15.056,0.567c-1.011,0-1.515-0.884-1.515-2.648
			c0-1.576,0.504-2.427,1.515-2.555c5.239-0.631,9.247-1.468,12.026-2.508c2.777-1.041,4.718-2.445,5.823-4.213
			c1.104-1.768,1.657-4.86,1.657-9.278v-89.092c0-4.354-0.521-7.431-1.562-9.229c-1.042-1.799-2.952-3.236-5.729-4.309
			c-2.779-1.073-6.851-1.924-12.215-2.556c-1.011,0-1.515-0.866-1.515-2.602c0-1.734,0.504-2.602,1.515-2.602
			c4.229,0,9.247,0.189,15.056,0.568c5.554,0.378,10.258,0.567,14.109,0.567c3.85,0,8.584-0.189,14.204-0.567
			c5.871-0.379,10.921-0.568,15.151-0.568c14.077,0,24.966,2.943,32.669,8.828c7.701,5.886,11.552,14.152,11.552,24.8
			c0,6.726-2.545,12.97-7.633,18.73c-5.09,5.76-11.97,10.198-20.642,13.312l29.167,47.439c2.53,4.145,5.787,7.204,9.773,9.183
			c3.986,1.978,9.141,3.344,15.467,4.097C603.765,208.888,604.209,209.738,604.209,211.314z M555.916,116.425
			c0-18.477-8.049-27.715-24.146-27.715c-5.303,0-9.327,0.427-12.073,1.282c-2.746,0.854-4.578,2.199-5.492,4.034
			c-0.916,1.836-1.373,5.062-1.373,9.682v42.237c3.66,0.505,8.269,0.757,13.825,0.757c10.163,0,17.58-2.403,22.252-7.212
			C553.58,134.681,555.916,126.993,555.916,116.425z"/>
		<path d="M675.89,160.229c0,1.767-1.136,2.648-3.409,2.648h-51.892c-0.378,3.406-0.568,6.938-0.568,10.596
			c0,10.155,2.415,17.96,7.244,23.414c4.83,5.456,11.695,8.183,20.596,8.183c4.481,0,8.996-1.197,13.541-3.595
			c4.545-2.396,8.206-5.454,10.984-9.176l0.473-0.189c0.568,0,1.12,0.348,1.657,1.04c0.536,0.695,0.805,1.514,0.805,2.46
			c0,1.324-2.021,4.084-6.061,8.278c-4.041,4.194-8.428,7.395-13.162,9.602c-4.735,2.207-9.691,3.312-14.867,3.312
			c-11.363,0-20.927-4.163-28.692-12.488c-7.765-8.324-11.647-18.542-11.647-30.65c0-12.36,3.803-22.83,11.411-31.408
			c7.606-8.576,17.249-12.866,28.928-12.866c9.784,0,18.006,3.202,24.667,9.602C672.559,145.393,675.89,152.472,675.89,160.229z
			 M658.656,151.904c0-4.73-1.626-8.656-4.876-11.778c-3.252-3.122-7.434-4.683-12.547-4.683c-4.862,0-9.076,2.034-12.642,6.102
			c-3.567,4.068-5.981,9.413-7.244,16.035l26.324-0.757c3.977-0.062,6.802-0.44,8.475-1.135
			C657.818,154.995,658.656,153.734,658.656,151.904z"/>
		<path d="M750.42,216.045c-3.516,0-6.575-0.868-9.179-2.602c-2.605-1.734-4.378-4.083-5.319-7.048
			c-6.756,6.937-15.593,10.406-26.514,10.406c-5.682,0-10.321-1.75-13.919-5.251c-3.599-3.5-5.397-7.866-5.397-13.103
			c0-12.928,15.34-23.397,46.02-31.407l0.568-14.759v-0.473c0-4.541-1.122-8.15-3.362-10.832c-2.241-2.68-5.224-4.021-8.948-4.021
			c-3.726,0-6.881,0.899-9.469,2.696c-2.589,1.797-3.915,4.053-3.977,6.764c-0.063,4.037-1.122,7.19-3.172,9.46
			c-2.052,2.271-4.782,3.405-8.19,3.405c-2.021,0-3.662-0.599-4.924-1.798c-1.263-1.197-1.894-2.805-1.894-4.824
			c0-4.856,4.418-9.948,13.257-15.278c8.837-5.329,17.044-7.994,24.62-7.994c6.818,0,12.341,2.019,16.571,6.054
			c4.229,4.037,6.344,9.46,6.344,16.271v1.136l-1.42,42.76v0.662c0,6.622,2.146,9.934,6.439,9.934c2.083,0,4.513-1.261,7.291-3.784
			l0.663-0.189c0.504,0,0.978,0.331,1.42,0.993c0.441,0.663,0.663,1.372,0.663,2.129c0,1.83-1.91,4.068-5.729,6.717
			C759.042,214.72,754.895,216.045,750.42,216.045z M735.922,173.379c-18.371,4.175-27.556,11.068-27.556,20.681
			c0,8.981,3.459,13.471,10.379,13.471c3.333,0,6.619-0.837,9.859-2.513c3.24-1.677,5.426-3.747,6.559-6.214L735.922,173.379z"/>
		<path d="M861.294,207.675c0,1.352-0.506,2.092-1.515,2.221c-3.599,0.442-7.774,1.324-12.525,2.648
			c-4.75,1.325-8.458,2.649-11.123,3.974c-1.397,0.693-2.413,1.041-3.046,1.041c-1.017,0-1.524-0.506-1.524-1.514l0.757-10.218
			c-6.692,7.315-15.214,10.975-25.567,10.975c-10.922,0-20.217-4.194-27.887-12.582s-11.505-18.448-11.505-30.179
			c0-13.307,4.245-24.076,12.736-32.307c8.49-8.23,19.143-12.345,31.958-12.345c7.322,0,14.077,2.27,20.264,6.811v-31.436
			c0-5.097-0.632-8.433-1.894-10.005c-1.263-1.573-4.166-2.612-8.711-3.116c-1.011-0.128-1.515-0.933-1.515-2.411
			c0-1.672,0.506-2.509,1.52-2.509c5.952-1.386,11.113-3.058,15.482-5.014c4.369-1.954,7.313-3.689,8.834-5.203
			c0.633-0.63,1.298-0.946,1.995-0.946c1.772,0,2.66,0.504,2.66,1.512c-1.01,13.74-1.515,24.706-1.515,32.898v83.284
			c0,4.35,0.63,7.264,1.894,8.745c1.262,1.481,4.167,2.536,8.712,3.166C860.789,205.165,861.294,206.002,861.294,207.675z
			 M832.319,197.578v-48.512c0-3.279-1.91-6.37-5.729-9.271c-3.82-2.9-7.97-4.352-12.452-4.352c-18.434,0-27.65,12.945-27.65,38.836
			c0,10.231,2.209,18.726,6.628,25.481c4.418,6.757,10.227,10.135,17.423,10.135c4.103,0,7.827-0.932,11.174-2.795
			C825.059,205.237,828.593,202.062,832.319,197.578z"/>
		<path d="M933.743,216.045c-3.516,0-6.575-0.868-9.179-2.602c-2.605-1.734-4.378-4.083-5.319-7.048
			c-6.756,6.937-15.593,10.406-26.514,10.406c-5.682,0-10.321-1.75-13.919-5.251c-3.599-3.5-5.397-7.866-5.397-13.103
			c0-12.928,15.34-23.397,46.02-31.407l0.568-14.759v-0.473c0-4.541-1.122-8.15-3.362-10.832c-2.241-2.68-5.224-4.021-8.948-4.021
			c-3.726,0-6.881,0.899-9.469,2.696c-2.589,1.797-3.915,4.053-3.977,6.764c-0.063,4.037-1.122,7.19-3.172,9.46
			c-2.052,2.271-4.782,3.405-8.19,3.405c-2.021,0-3.662-0.599-4.924-1.798c-1.263-1.197-1.894-2.805-1.894-4.824
			c0-4.856,4.418-9.948,13.257-15.278c8.837-5.329,17.044-7.994,24.62-7.994c6.818,0,12.341,2.019,16.571,6.054
			c4.229,4.037,6.344,9.46,6.344,16.271v1.136l-1.42,42.76v0.662c0,6.622,2.146,9.934,6.439,9.934c2.083,0,4.513-1.261,7.291-3.784
			l0.663-0.189c0.504,0,0.978,0.331,1.42,0.993c0.441,0.663,0.663,1.372,0.663,2.129c0,1.83-1.91,4.068-5.729,6.717
			C942.364,214.72,938.217,216.045,933.743,216.045z M919.245,173.379c-18.371,4.175-27.556,11.068-27.556,20.681
			c0,8.981,3.459,13.471,10.379,13.471c3.333,0,6.619-0.837,9.859-2.513c3.24-1.677,5.426-3.747,6.559-6.214L919.245,173.379z"/>
		<path d="M1039.408,172.717c0,11.605-4.107,21.854-12.324,30.746s-17.729,13.339-28.535,13.339c-6.004,0-11.819-1.263-17.443-3.784
			c-3.855-1.766-7.269-2.649-10.238-2.649c-4.741,0-7.87,2.02-9.385,6.055c-0.316,0.757-1.106,1.136-2.37,1.136
			c-1.644,0-2.465-0.505-2.465-1.513c0.504-5.293,0.757-11.658,0.757-19.096v-92.168c0-5.104-0.648-8.443-1.941-10.019
			c-1.295-1.576-4.119-2.584-8.475-3.026c-1.01,0-1.515-0.771-1.515-2.315c0-1.799,0.503-2.699,1.511-2.699
			c11.2-2.9,19.162-6.244,23.883-10.028c0.944-0.757,1.729-1.135,2.36-1.135c1.761,0,2.643,0.506,2.643,1.514
			c-1.011,13.75-1.515,24.786-1.515,33.111v28.286c5.951-5.927,13.231-8.893,21.843-8.893c12.851,0,23.267,3.879,31.243,11.636
			C1035.42,148.972,1039.408,159.473,1039.408,172.717z M1020.281,173.521c0-11.618-2.311-20.712-6.928-27.279
			s-11.101-9.852-19.452-9.852c-4.492,0-8.872,1.688-13.142,5.061c-4.27,3.375-6.405,6.733-6.405,10.075v43.776
			c0,3.35,2.545,6.745,7.637,10.188c5.093,3.442,9.821,5.163,14.186,5.163c7.59,0,13.505-3.378,17.745-10.135
			C1018.16,193.762,1020.281,184.763,1020.281,173.521z"/>
		<path d="M1093.475,211.314c0,1.765-0.506,2.648-1.514,2.648c-2.59,0-5.904-0.188-9.943-0.567
			c-4.531-0.378-8.334-0.567-11.41-0.567c-3.141,0-6.912,0.189-11.316,0.567c-3.977,0.379-7.26,0.567-9.848,0.567
			c-1.01,0-1.516-0.884-1.516-2.648c0-1.576,0.506-2.427,1.516-2.555c5.365-0.691,8.822-1.983,10.369-3.872
			c1.547-1.89,2.32-5.919,2.32-12.092v-34.951c0-5.037-0.648-8.343-1.941-9.918c-1.295-1.575-4.119-2.614-8.475-3.118
			c-1.012,0-1.516-0.835-1.516-2.508c0-1.543,0.502-2.316,1.51-2.316c6.609-1.703,12.02-3.515,16.236-5.439
			c4.217-1.923,6.859-3.515,7.93-4.777c0.629-0.757,1.322-1.135,2.078-1.135c1.76,0,2.643,0.505,2.643,1.513
			c-1.012,14.128-1.516,25.103-1.516,32.922v29.705c0,6.182,0.771,10.217,2.32,12.109c1.545,1.892,5.066,3.186,10.559,3.878
			C1092.969,208.888,1093.475,209.738,1093.475,211.314z M1080.219,96.94c0,2.649-0.963,4.952-2.889,6.906
			c-1.926,1.956-4.246,2.933-6.959,2.933c-2.715,0-5.035-0.977-6.961-2.933c-1.926-1.954-2.887-4.257-2.887-6.906
			c0-2.774,0.945-5.108,2.84-7s4.229-2.838,7.008-2.838c2.713,0,5.033,0.946,6.959,2.838S1080.219,94.166,1080.219,96.94z"/>
		<path d="M1144.42,211.125c0,1.766-0.506,2.649-1.516,2.649c-2.59,0-5.904-0.158-9.943-0.474
			c-4.545-0.316-8.365-0.473-11.457-0.473c-3.029,0-6.787,0.156-11.268,0.473c-4.041,0.315-7.355,0.474-9.943,0.474
			c-1.01,0-1.516-0.884-1.516-2.649c0-1.575,0.506-2.427,1.516-2.554c5.365-0.63,8.854-1.905,10.463-3.827s2.416-5.972,2.416-12.147
			v-87.814c0-5.104-0.633-8.443-1.895-10.019c-1.264-1.576-4.166-2.615-8.711-3.121c-1.012-0.128-1.516-0.933-1.516-2.414
			c0-1.543,0.504-2.316,1.516-2.316c6.627-1.703,12.057-3.515,16.287-5.44c4.229-1.923,6.879-3.547,7.953-4.872
			c0.631-0.693,1.326-1.041,2.084-1.041c1.766,0,2.65,0.506,2.65,1.514c-1.01,14.128-1.516,25.102-1.516,32.922v82.587
			c0,6.182,0.789,10.233,2.369,12.156c1.576,1.925,5.08,3.202,10.51,3.832C1143.914,208.698,1144.42,209.55,1144.42,211.125z"/>
		<path d="M1195.551,211.314c0,1.765-0.506,2.648-1.514,2.648c-2.59,0-5.904-0.188-9.943-0.567
			c-4.531-0.378-8.334-0.567-11.41-0.567c-3.141,0-6.912,0.189-11.316,0.567c-3.977,0.379-7.26,0.567-9.848,0.567
			c-1.01,0-1.516-0.884-1.516-2.648c0-1.576,0.506-2.427,1.516-2.555c5.365-0.691,8.822-1.983,10.369-3.872
			c1.547-1.89,2.32-5.919,2.32-12.092v-34.951c0-5.037-0.648-8.343-1.941-9.918c-1.295-1.575-4.119-2.614-8.475-3.118
			c-1.012,0-1.516-0.835-1.516-2.508c0-1.543,0.502-2.316,1.51-2.316c6.609-1.703,12.02-3.515,16.236-5.439
			c4.217-1.923,6.859-3.515,7.93-4.777c0.629-0.757,1.322-1.135,2.078-1.135c1.76,0,2.643,0.505,2.643,1.513
			c-1.012,14.128-1.516,25.103-1.516,32.922v29.705c0,6.182,0.771,10.217,2.32,12.109c1.545,1.892,5.066,3.186,10.559,3.878
			C1195.045,208.888,1195.551,209.738,1195.551,211.314z M1182.295,96.94c0,2.649-0.963,4.952-2.889,6.906
			c-1.926,1.956-4.246,2.933-6.959,2.933c-2.715,0-5.035-0.977-6.961-2.933c-1.926-1.954-2.887-4.257-2.887-6.906
			c0-2.774,0.945-5.108,2.84-7s4.229-2.838,7.008-2.838c2.713,0,5.033,0.946,6.959,2.838S1182.295,94.166,1182.295,96.94z"/>
		<path d="M1255.965,138.66c0,3.405-0.82,5.108-2.461,5.108l-28.219-0.757v45.409c0,11.857,4.229,17.785,12.688,17.785
			c5.24,0,10.006-1.229,14.299-3.689c0.506,0,0.963,0.331,1.373,0.993s0.615,1.372,0.615,2.129c0,1.577-2.348,3.705-7.041,6.386
			c-4.693,2.68-9.969,4.021-15.828,4.021c-7.182,0-12.914-2.192-17.197-6.575c-4.285-4.383-6.426-10.17-6.426-17.359v-0.852
			l0.377-45.977c0-1.765-0.756-2.649-2.271-2.649h-7.197c-1.389,0-2.082-0.804-2.082-2.416c0-1.239,0.564-2.167,1.697-2.788
			c8.748-5.191,16.361-12.505,22.844-21.942c0.691-1.013,1.572-1.52,2.645-1.52c1.76,0,2.643,0.505,2.643,1.514l-0.758,18.069h27.84
			C1255.145,133.551,1255.965,135.254,1255.965,138.66z"/>
		<path d="M1356.715,135.018c0,1.611-0.506,2.478-1.516,2.602c-4.293,0.445-7.592,1.699-9.895,3.759
			c-2.305,2.062-4.846,6.139-7.623,12.229l-44.695,96.494c-4.986,10.343-10.795,15.515-17.422,15.515
			c-3.221,0-5.793-0.868-7.719-2.602c-1.926-1.735-2.887-3.959-2.887-6.67c0-2.838,0.863-5.155,2.594-6.953
			c1.729-1.797,4.039-2.696,6.932-2.696c1.361,0,2.92,0.474,4.678,1.42c1.133,0.567,1.955,0.851,2.469,0.851
			c2.098,0,4.564-3.532,7.398-10.595l11.83-25.543l-22.076-59.221c-2.336-5.774-4.688-9.755-7.055-11.944
			c-2.367-2.188-5.572-3.536-9.611-4.044c-1.008-0.124-1.516-0.99-1.516-2.602c0-1.734,0.48-2.602,1.436-2.602
			c2.451,0,5.441,0.189,8.969,0.568c3.943,0.378,7.412,0.567,10.402,0.567c2.93,0,6.574-0.189,10.939-0.567
			c4.008-0.378,7.303-0.568,9.893-0.568c1.01,0,1.516,0.868,1.516,2.602c0,1.611-0.506,2.478-1.516,2.602
			c-6.596,0.825-9.893,2.729-9.893,5.71c0,2.093,0.867,5.519,2.602,10.278l15.258,39.039l18.084-39.039
			c1.562-3.595,2.344-6.559,2.344-8.893c0-3.973-3.055-6.338-9.162-7.095c-1.01-0.125-1.514-0.977-1.514-2.554
			c0-1.765,0.504-2.649,1.514-2.649c2.652,0,5.607,0.189,8.869,0.568c3.189,0.378,6.088,0.567,8.693,0.567
			c1.303,0,3.418-0.157,6.35-0.473c4.035-0.441,7.293-0.663,9.768-0.663C1356.193,132.416,1356.715,133.284,1356.715,135.018z"/>
		<path d="M1514.943,175.365c0,11.669-3.914,21.019-11.742,28.05c-7.828,7.033-18.213,10.548-31.152,10.548
			c-4.23,0-10.229-0.188-17.992-0.567c-7.387-0.378-13.006-0.567-16.855-0.567c-3.852,0-9.027,0.189-15.529,0.567
			c-6.756,0.379-12.248,0.567-16.477,0.567c-1.01,0-1.516-0.884-1.516-2.648c0-1.576,0.506-2.427,1.516-2.555
			c7.637-0.884,12.83-2.303,15.576-4.26s4.119-5.869,4.119-11.739v-89.09c0-4.418-0.553-7.527-1.656-9.326
			c-1.105-1.799-3.047-3.219-5.824-4.26c-2.777-1.041-6.85-1.877-12.215-2.51c-1.01,0-1.516-0.866-1.516-2.602
			c0-1.734,0.506-2.602,1.516-2.602c4.229,0,9.406,0.189,15.529,0.568c5.867,0.378,10.725,0.567,14.57,0.567
			s8.891-0.189,15.133-0.567c6.621-0.379,12.043-0.568,16.27-0.568c11.789,0,21.311,2.807,28.562,8.419
			c7.25,5.614,10.877,13.024,10.877,22.232c0,6.433-2.684,12.44-8.049,18.021s-11.994,9.256-19.885,11.021
			c11.174,2.208,20.09,6.276,26.75,12.204C1511.613,160.198,1514.943,167.229,1514.943,175.365z M1485.211,112.973
			c0-8.34-2.053-14.468-6.156-18.386c-4.104-3.917-10.479-5.877-19.127-5.877h-3.789c-7.953,0-11.93,3.413-11.93,10.236v41.228
			h13.635c9.596,0,16.555-2.132,20.881-6.398C1483.047,129.512,1485.211,122.578,1485.211,112.973z M1494.111,175.41
			c0-9.096-2.59-16.233-7.766-21.413c-5.176-5.179-12.342-7.769-21.494-7.769h-20.643v46.616c0,5.748,1.641,9.68,4.924,11.797
			c3.281,2.116,8.9,3.174,16.855,3.174c8.27,0,15.023-2.984,20.264-8.953C1491.49,192.893,1494.111,185.074,1494.111,175.41z"/>
		<path d="M1614.463,207.77c0,1.352-0.506,2.092-1.516,2.221c-11.49,1.246-19.35,3.425-23.578,6.541
			c-0.885,0.684-1.768,1.027-2.652,1.027c-1.264,0-1.893-0.506-1.893-1.514l0.758-11.92c-9.344,8.452-17.803,12.677-25.379,12.677
			c-8.648,0-15.387-2.448-20.217-7.341c-4.828-4.893-7.244-11.54-7.244-19.939v-35.424c0-5.619-0.727-9.345-2.178-11.176
			c-1.453-1.832-4.324-2.748-8.617-2.748c-0.82,0-1.736,0.032-2.746,0.094c-0.945,0-1.42-0.806-1.42-2.417
			c0-1.984,0.504-2.976,1.512-2.976c7.299,0,16.867-1.419,28.699-4.257c1.135,0,1.701,0.79,1.701,2.365v52.031
			c0,7.128,1.359,12.315,4.082,15.562c2.723,3.249,6.994,4.872,12.816,4.872c3.734,0,7.025-0.694,9.873-2.084
			c2.85-1.39,5.889-3.853,9.117-7.39v-41.875c0-5.558-0.744-9.27-2.227-11.132c-1.484-1.862-4.436-2.795-8.854-2.795
			c-0.758,0-1.643,0.032-2.65,0.094c-0.947,0-1.422-0.806-1.422-2.417c0-1.984,0.506-2.976,1.516-2.976
			c7.322,0,16.918-1.419,28.787-4.257c1.137,0,1.703,0.79,1.703,2.365v60.356c0,4.352,0.617,7.27,1.848,8.751
			c1.23,1.482,4.119,2.539,8.664,3.169C1613.957,205.26,1614.463,206.097,1614.463,207.77z"/>
		<path d="M1678.096,138.66c0,3.405-0.822,5.108-2.463,5.108l-28.219-0.757v45.409c0,11.857,4.229,17.785,12.689,17.785
			c5.238,0,10.004-1.229,14.299-3.689c0.504,0,0.961,0.331,1.373,0.993c0.41,0.662,0.615,1.372,0.615,2.129
			c0,1.577-2.348,3.705-7.041,6.386c-4.693,2.68-9.969,4.021-15.828,4.021c-7.182,0-12.916-2.192-17.199-6.575
			c-4.285-4.383-6.426-10.17-6.426-17.359v-0.852l0.379-45.977c0-1.765-0.758-2.649-2.273-2.649h-7.195
			c-1.391,0-2.084-0.804-2.084-2.416c0-1.239,0.566-2.167,1.699-2.788c8.746-5.191,16.361-12.505,22.842-21.942
			c0.693-1.013,1.574-1.52,2.645-1.52c1.762,0,2.643,0.505,2.643,1.514l-0.758,18.069h27.84
			C1677.273,133.551,1678.096,135.254,1678.096,138.66z"/>
		<path d="M1744.188,138.66c0,3.405-0.82,5.108-2.461,5.108l-28.219-0.757v45.409c0,11.857,4.229,17.785,12.688,17.785
			c5.24,0,10.006-1.229,14.299-3.689c0.506,0,0.963,0.331,1.373,0.993s0.615,1.372,0.615,2.129c0,1.577-2.348,3.705-7.041,6.386
			c-4.693,2.68-9.969,4.021-15.828,4.021c-7.182,0-12.914-2.192-17.197-6.575c-4.285-4.383-6.426-10.17-6.426-17.359v-0.852
			l0.377-45.977c0-1.765-0.756-2.649-2.271-2.649h-7.197c-1.389,0-2.082-0.804-2.082-2.416c0-1.239,0.564-2.167,1.697-2.788
			c8.748-5.191,16.361-12.505,22.844-21.942c0.691-1.013,1.572-1.52,2.645-1.52c1.76,0,2.643,0.505,2.643,1.514l-0.758,18.069h27.84
			C1743.367,133.551,1744.188,135.254,1744.188,138.66z"/>
		<path d="M1839.824,173.663c0,12.551-4.092,22.879-12.275,30.982c-8.186,8.104-18.787,12.156-31.803,12.156
			c-13.02,0-23.637-4.068-31.852-12.204c-8.217-8.136-12.322-18.447-12.322-30.935c0-12.677,4.137-23.226,12.418-31.645
			c8.277-8.42,18.861-12.629,31.756-12.629c12.955,0,23.539,4.195,31.756,12.582
			C1835.715,150.359,1839.824,160.924,1839.824,173.663z M1820.697,173.474c0-11.542-2.227-20.766-6.676-27.671
			c-4.451-6.906-10.559-10.359-18.324-10.359c-7.701,0-13.793,3.469-18.275,10.406c-4.482,6.938-6.723,16.146-6.723,27.624
			c0,11.416,2.209,20.481,6.629,27.198c4.418,6.717,10.541,10.075,18.369,10.075s13.951-3.326,18.371-9.98
			C1818.486,194.113,1820.697,185.015,1820.697,173.474z"/>
		<path d="M1945.311,211.314c0,1.765-0.506,2.648-1.516,2.648c-2.525,0-5.619-0.188-9.279-0.567
			c-4.035-0.378-7.594-0.567-10.676-0.567c-3.148,0-6.766,0.189-10.855,0.567c-3.713,0.379-6.828,0.567-9.342,0.567
			c-1.008,0-1.512-0.884-1.512-2.648c0-1.576,0.506-2.427,1.516-2.555c4.355-0.504,7.211-1.733,8.57-3.689
			c1.355-1.954,2.035-6.054,2.035-12.298v-31.598c0-7.062-1.389-12.234-4.166-15.514c-2.779-3.279-7.072-4.919-12.879-4.919
			c-3.662,0-6.898,0.695-9.705,2.081c-2.811,1.388-5.824,3.848-9.043,7.379v42.571c0,6.244,0.678,10.344,2.035,12.298
			c1.357,1.956,4.213,3.186,8.57,3.689c1.008,0.128,1.514,0.979,1.514,2.555c0,1.765-0.506,2.648-1.514,2.648
			c-2.59,0-5.746-0.188-9.471-0.567c-4.104-0.378-7.701-0.567-10.795-0.567c-3.029,0-6.566,0.189-10.605,0.567
			c-3.725,0.379-6.881,0.567-9.469,0.567c-1.01,0-1.516-0.884-1.516-2.648c0-1.576,0.506-2.427,1.516-2.555
			c5.43-0.691,8.932-1.998,10.512-3.92c1.576-1.92,2.367-5.935,2.367-12.044v-34.951c0-5.037-0.648-8.343-1.941-9.918
			c-1.295-1.575-4.184-2.614-8.664-3.118c-1.012,0-1.516-0.835-1.516-2.508c0-1.543,0.504-2.316,1.516-2.316
			c6.25-1.576,11.457-3.358,15.623-5.345c4.168-1.986,6.785-3.609,7.859-4.872c0.631-0.757,1.326-1.135,2.084-1.135
			c1.766,0,2.65,0.505,2.65,1.513l-0.756,11.92c9.072-8.451,17.516-12.676,25.33-12.676c8.57,0,15.268,2.459,20.088,7.379
			c4.82,4.919,7.23,11.542,7.23,19.867v36.138c0,6.182,0.771,10.217,2.32,12.109c1.545,1.892,5.002,3.186,10.367,3.878
			C1944.805,208.888,1945.311,209.738,1945.311,211.314z"/>
		<path d="M2008.941,189.556c0,7.695-3.025,14.159-9.074,19.394c-6.053,5.234-13.363,7.853-21.934,7.853
			c-3.025,0-7.689-0.662-13.99-1.987c-4.729-0.945-7.943-1.419-9.645-1.419c-0.504-4.413-1.67-11.13-3.498-20.15
			c0-0.945,0.914-1.419,2.746-1.419c1.516,0,2.43,0.506,2.746,1.514c1.451,4.668,4.324,8.736,8.617,12.204
			c4.293,3.469,8.711,5.203,13.258,5.203c4.734,0,8.41-1.292,11.031-3.879c2.619-2.585,3.93-6.211,3.93-10.879
			c0-2.964-1.09-5.582-3.268-7.853s-6.896-5.076-14.156-8.419c-9.533-4.353-15.83-8.451-18.891-12.299
			c-3.062-3.846-4.594-8.45-4.594-13.812c0-6.623,2.873-12.313,8.617-17.076c5.744-4.761,12.531-7.142,20.359-7.142
			c3.281,0,7.891,0.567,13.826,1.703c3.281,0.631,5.428,0.946,6.438,0.946c0.189,7.443,0.6,13.781,1.232,19.015
			c0,0.946-0.916,1.419-2.746,1.419c-1.58,0-2.463-0.504-2.652-1.514c-0.691-4.603-2.424-8.339-5.191-11.21
			c-2.77-2.869-6.074-4.305-9.912-4.305c-9.816,0-14.725,4.29-14.725,12.866c0,2.901,1.162,5.581,3.488,8.041
			c2.324,2.46,7.383,5.646,15.176,9.555c9.301,4.668,15.428,8.703,18.381,12.109C2007.465,181.42,2008.941,185.268,2008.941,189.556
			z"/>
	</g>
</g>
</svg>
