<svg width="256" height="256" viewBox="0 0 256 256" xmlns="http://www.w3.org/2000/svg"><title>icon</title><desc>Created with Sketch.</desc><g fill="none"><path fill="#870000" d="M0 0h256v256H0z"/><path d="M175.792 129.084l-.002.03-2.564 23.074c-10.837-8.855-28.495-15.476-45.25-15.476-16.67 0-34.255 6.584-45.085 15.35l-2.547-22.95c0-.008-.004-.017-.004-.028-.02-7.062-3.443-13.272-8.658-17.253 3.005-28.486 27.012-50.71 56.295-50.71 29.33 0 53.366 22.3 56.305 50.854-5.114 3.986-8.47 10.128-8.488 17.11zm-5.696 49.44h-84.06l-2.864-22.47c10.358-10.018 26.55-15.91 44.803-15.91 18.347 0 34.618 5.934 44.968 16.06l-2.847 22.32zM77.62 194.89c-8.835 0-8.362-.143-8.362-8.977L55.64 154.2c-11.7-.41-21.063-10-21.063-21.8 0-12.062 9.776-21.838 21.84-21.838 12.042 0 21.804 9.747 21.836 21.783 0 .01.003.017.003.027l5.815 52.347c0 8.833 2.383 10.17-6.45 10.17zm122.873-40.69l-13.62 31.713c0 8.834.474 9.08-8.36 9.08-8.833 0-6.452-1.44-6.452-10.274l5.817-52.35c0-.01.003-.017.003-.026.03-12.036 9.792-21.783 21.836-21.783 12.062 0 21.84 9.777 21.84 21.84 0 11.8-9.364 21.388-21.063 21.8z" fill="#fff"/></g></svg>