<svg width="256" height="256" viewBox="0 0 256 256" xmlns="http://www.w3.org/2000/svg"><title>icon</title><g fill="none" fill-rule="evenodd"><path fill="#FF001F" d="M0 0h256v256H0z"/><path d="M175.657 128.963l-.002.03-2.564 23.074c-10.838-8.855-28.495-15.476-45.25-15.476-16.671 0-34.256 6.584-45.085 15.349l-2.549-22.948c0-.01-.004-.019-.004-.03-.018-7.061-3.442-13.272-8.657-17.253C74.55 83.221 98.556 61 127.84 61c29.33 0 53.366 22.298 56.305 50.851-5.114 3.987-8.469 10.128-8.488 17.112zm-5.696 49.44h-84.06l-2.864-22.47c10.358-10.018 26.55-15.912 44.803-15.912 18.347 0 34.618 5.936 44.967 16.062l-2.846 22.32zm-92.477 16.365c-8.834 0-8.36-.142-8.36-8.976l-13.62-31.712c-11.699-.412-21.062-10-21.062-21.8 0-12.063 9.776-21.839 21.84-21.839 12.042 0 21.804 9.747 21.836 21.783 0 .009.003.017.003.027l5.815 52.347c0 8.835 2.38 10.17-6.452 10.17zm122.874-40.688l-13.619 31.712c0 8.834.473 9.08-8.36 9.08-8.835 0-6.453-1.44-6.453-10.274l5.815-52.347c0-.01.003-.018.003-.027.032-12.036 9.793-21.783 21.837-21.783 12.062 0 21.84 9.776 21.84 21.839 0 11.8-9.364 21.388-21.063 21.8z" fill="#FFF"/></g></svg>