<svg width="1230" height="282" viewBox="0 0 1230 282" xmlns="http://www.w3.org/2000/svg"><title>website-title</title><g fill="#FF001F" fill-rule="evenodd"><path d="M282.968 143.172c0 .021-.005.04-.005.059l-5.12 46.232c-21.65-17.742-56.921-31.008-90.392-31.008-33.3 0-68.426 13.193-90.059 30.754l-5.09-45.978c0-.019-.01-.038-.01-.059-.035-14.15-6.874-26.593-17.292-34.57C81 51.524 128.955 7 187.45 7c58.59 0 106.602 44.676 112.473 101.887-10.217 7.988-16.918 20.293-16.955 34.285zm-11.379 99.061H103.673l-5.718-45.024c20.69-20.071 53.034-31.88 89.496-31.88 36.649 0 69.15 11.893 89.824 32.181l-5.686 44.723zM86.862 275.021c-17.646 0-16.702-.284-16.702-17.984l-27.204-63.54C19.586 192.672.884 173.461.884 149.818c0-24.17 19.528-43.757 43.624-43.757 24.056 0 43.556 19.529 43.62 43.644 0 .02.006.036.006.054L99.75 254.644c0 17.702 4.755 20.377-12.888 20.377zm245.447-81.524l-27.204 63.54c0 17.7.944 18.191-16.702 18.191s-12.888-2.882-12.888-20.584l11.615-104.885c0-.018.005-.035.005-.054.066-24.115 19.563-43.644 43.622-43.644 24.094 0 43.627 19.588 43.627 43.757 0 23.643-18.706 42.854-42.075 43.68z"/><text font-family="Futura-Bold, Futura" font-size="149" font-weight="bold" letter-spacing="-8.734" transform="translate(0 -16)"><tspan x="405" y="155">Readability </tspan> <tspan x="405" y="310">Buttons</tspan></text></g></svg>