<?xml version="1.0" encoding="UTF-8"?>
<svg width="1231px" height="282px" viewBox="0 0 1231 282" version="1.1" xmlns="http://www.w3.org/2000/svg" xmlns:xlink="http://www.w3.org/1999/xlink">
    <!-- Generator: Sketch 41.2 (35397) - http://www.bohemiancoding.com/sketch -->
    <title>website-title</title>
    <desc>Created with Sketch.</desc>
    <defs></defs>
    <g id="Page-1" stroke="none" stroke-width="1" fill="none" fill-rule="evenodd">
        <g id="website-title" transform="translate(-96.000000, -195.000000)" fill="#FF001F">
            <g transform="translate(96.000000, 195.000000)">
                <path d="M282.967969,143.172211 C282.967969,143.193368 282.963281,143.212175 282.963281,143.230982 L277.842187,189.463333 C256.192969,171.721263 220.921875,158.455263 187.450781,158.455263 C154.150781,158.455263 119.025,171.648386 97.3921875,189.209439 L92.3015625,143.230982 C92.3015625,143.212175 92.2921875,143.193368 92.2921875,143.172211 C92.2570312,129.022281 85.4179688,116.579088 75,108.602561 C81,51.5232632 128.955469,7 187.450781,7 C246.039844,7 294.051562,51.6760702 299.922656,108.887018 C289.70625,116.875298 283.005469,129.179789 282.967969,143.172211 Z M271.589062,242.233474 L103.673437,242.233474 L97.9546875,197.209474 C118.645312,177.137684 150.989062,165.329228 187.450781,165.329228 C224.1,165.329228 256.600781,177.222316 277.275,197.510386 L271.589062,242.233474 Z M86.8617187,275.021158 C69.215625,275.021158 70.1601562,274.736702 70.1601562,257.036947 L42.95625,193.497439 C19.5867187,192.672281 0.88359375,173.460912 0.88359375,149.81814 C0.88359375,125.648772 20.4117187,106.061263 44.5078125,106.061263 C68.5640625,106.061263 88.0640625,125.59 88.1273437,149.705298 C88.1273437,149.724105 88.134375,149.740561 88.134375,149.759368 L99.75,254.643754 C99.75,272.34586 104.505469,275.021158 86.8617187,275.021158 Z M332.308594,193.497439 L305.104688,257.036947 C305.104688,274.736702 306.049219,275.228035 288.403125,275.228035 C270.757031,275.228035 275.514844,272.34586 275.514844,254.643754 L287.130469,149.759368 C287.130469,149.740561 287.135156,149.724105 287.135156,149.705298 C287.200781,125.59 306.698438,106.061263 330.757031,106.061263 C354.850781,106.061263 374.383594,125.648772 374.383594,149.81814 C374.383594,173.460912 355.678125,192.672281 332.308594,193.497439 Z" id="Fill-1"></path>
                <path d="M445.975,61.867 L451.488,61.867 C457.249362,61.867 461.669651,60.6750119 464.749,58.291 C467.828349,55.9069881 469.368,52.4800223 469.368,48.01 C469.368,43.5399776 467.828349,40.1130119 464.749,37.729 C461.669651,35.3449881 457.249362,34.153 451.488,34.153 L445.975,34.153 L445.975,61.867 Z M510.194,124 L473.838,124 L445.975,80.79 L445.975,124 L416.771,124 L416.771,11.654 L462.216,11.654 C468.474031,11.654 473.93731,12.5728241 478.606,14.4105 C483.27469,16.2481759 487.123818,18.7563174 490.1535,21.935 C493.183182,25.1136826 495.467826,28.7889791 497.0075,32.961 C498.547174,37.1330209 499.317,41.6029762 499.317,46.371 C499.317,54.9137094 497.255854,61.8421401 493.1335,67.1565 C489.011146,72.4708599 482.92704,76.0716572 474.881,77.959 L510.194,124 Z M565.380509,74.681 C564.486504,70.9063145 562.648856,67.8766781 559.867509,65.592 C557.086161,63.3073219 553.708862,62.165 549.735509,62.165 C545.563488,62.165 542.161355,63.2576557 539.529009,65.443 C536.896662,67.6283443 535.232845,70.7076468 534.537509,74.681 L565.380509,74.681 Z M533.792509,90.326 C533.792509,101.948058 539.255787,107.759 550.182509,107.759 C556.043205,107.759 560.463494,105.375024 563.443509,100.607 L589.518509,100.607 C584.253816,118.089754 571.092281,126.831 550.033509,126.831 C543.57681,126.831 537.666535,125.86251 532.302509,123.9255 C526.938482,121.98849 522.344361,119.232018 518.520009,115.656 C514.695656,112.079982 511.740519,107.808691 509.654509,102.842 C507.568498,97.8753085 506.525509,92.3126975 506.525509,86.154 C506.525509,79.7966349 507.518832,74.0601922 509.505509,68.9445 C511.492185,63.8288078 514.323157,59.4830179 517.998509,55.907 C521.67386,52.3309821 526.118983,49.5745097 531.334009,47.6375 C536.549035,45.7004903 542.434476,44.732 548.990509,44.732 C555.447208,44.732 561.258149,45.7004903 566.423509,47.6375 C571.588868,49.5745097 575.959491,52.3806483 579.535509,56.056 C583.111527,59.7313517 585.843166,64.2261401 587.730509,69.5405 C589.617851,74.8548599 590.561509,80.8396334 590.561509,87.495 L590.561509,90.326 L533.792509,90.326 Z M622.206017,85.558 C622.206017,88.0413457 622.653013,90.3508227 623.547017,92.4865 C624.441022,94.6221773 625.657843,96.4846587 627.197517,98.074 C628.737192,99.6633413 630.57484,100.904996 632.710517,101.799 C634.846195,102.693004 637.155672,103.14 639.639017,103.14 C642.023029,103.14 644.28284,102.693004 646.418517,101.799 C648.554195,100.904996 650.391843,99.6633413 651.931517,98.074 C653.471192,96.4846587 654.712846,94.6470104 655.656517,92.561 C656.600189,90.4749896 657.072017,88.2400119 657.072017,85.856 C657.072017,83.4719881 656.600189,81.2121773 655.656517,79.0765 C654.712846,76.9408227 653.471192,75.0783413 651.931517,73.489 C650.391843,71.8996587 648.554195,70.6580045 646.418517,69.764 C644.28284,68.8699955 642.023029,68.423 639.639017,68.423 C637.155672,68.423 634.846195,68.8699955 632.710517,69.764 C630.57484,70.6580045 628.737192,71.8996587 627.197517,73.489 C625.657843,75.0783413 624.441022,76.8911565 623.547017,78.9275 C622.653013,80.9638435 622.206017,83.1739881 622.206017,85.558 Z M656.178017,47.563 L683.296017,47.563 L683.296017,124 L656.178017,124 L656.178017,115.507 C650.416655,122.75837 642.619066,126.384 632.785017,126.384 C627.222323,126.384 622.106707,125.365844 617.438017,123.3295 C612.769327,121.293156 608.696701,118.437352 605.220017,114.762 C601.743333,111.086648 599.036527,106.765691 597.099517,101.799 C595.162508,96.8323085 594.194017,91.418696 594.194017,85.558 C594.194017,80.0946393 595.137675,74.9045246 597.025017,69.9875 C598.91236,65.0704754 601.544667,60.7743517 604.922017,57.099 C608.299368,53.4236483 612.322327,50.5181773 616.991017,48.3825 C621.659707,46.2468227 626.824989,45.179 632.487017,45.179 C642.023065,45.179 649.919986,48.5066334 656.178017,55.162 L656.178017,47.563 Z M717.920526,85.558 C717.920526,88.0413457 718.367521,90.3508227 719.261526,92.4865 C720.15553,94.6221773 721.372352,96.4846587 722.912026,98.074 C724.4517,99.6633413 726.289349,100.904996 728.425026,101.799 C730.560703,102.693004 732.87018,103.14 735.353526,103.14 C737.737538,103.14 739.997349,102.693004 742.133026,101.799 C744.268703,100.904996 746.106352,99.6633413 747.646026,98.074 C749.1857,96.4846587 750.427355,94.6470104 751.371026,92.561 C752.314697,90.4749896 752.786526,88.2400119 752.786526,85.856 C752.786526,83.4719881 752.314697,81.2121773 751.371026,79.0765 C750.427355,76.9408227 749.1857,75.0783413 747.646026,73.489 C746.106352,71.8996587 744.268703,70.6580045 742.133026,69.764 C739.997349,68.8699955 737.737538,68.423 735.353526,68.423 C732.969514,68.423 730.709703,68.8699955 728.574026,69.764 C726.438349,70.6580045 724.6007,71.8996587 723.061026,73.489 C721.521352,75.0783413 720.279697,76.8911565 719.336026,78.9275 C718.392355,80.9638435 717.920526,83.1739881 717.920526,85.558 Z M751.892526,0.33 L779.010526,0.33 L779.010526,124 L751.892526,124 L751.892526,115.507 C746.131164,122.75837 738.333575,126.384 728.499526,126.384 C722.936831,126.384 717.821216,125.34101 713.152526,123.255 C708.483836,121.16899 704.41121,118.288352 700.934526,114.613 C697.457842,110.937648 694.751036,106.616691 692.814026,101.65 C690.877016,96.6833085 689.908526,91.3193621 689.908526,85.558 C689.908526,80.0946393 690.82735,74.9045246 692.665026,69.9875 C694.502702,65.0704754 697.110176,60.7743517 700.487526,57.099 C703.864876,53.4236483 707.912669,50.5181773 712.631026,48.3825 C717.349383,46.2468227 722.539498,45.179 728.201526,45.179 C737.737574,45.179 745.634495,48.5066334 751.892526,55.162 L751.892526,0.33 Z M813.635035,85.558 C813.635035,88.0413457 814.08203,90.3508227 814.976035,92.4865 C815.870039,94.6221773 817.08686,96.4846587 818.626535,98.074 C820.166209,99.6633413 822.003857,100.904996 824.139535,101.799 C826.275212,102.693004 828.584689,103.14 831.068035,103.14 C833.452047,103.14 835.711857,102.693004 837.847535,101.799 C839.983212,100.904996 841.82086,99.6633413 843.360535,98.074 C844.900209,96.4846587 846.141863,94.6470104 847.085535,92.561 C848.029206,90.4749896 848.501035,88.2400119 848.501035,85.856 C848.501035,83.4719881 848.029206,81.2121773 847.085535,79.0765 C846.141863,76.9408227 844.900209,75.0783413 843.360535,73.489 C841.82086,71.8996587 839.983212,70.6580045 837.847535,69.764 C835.711857,68.8699955 833.452047,68.423 831.068035,68.423 C828.584689,68.423 826.275212,68.8699955 824.139535,69.764 C822.003857,70.6580045 820.166209,71.8996587 818.626535,73.489 C817.08686,75.0783413 815.870039,76.8911565 814.976035,78.9275 C814.08203,80.9638435 813.635035,83.1739881 813.635035,85.558 Z M847.607035,47.563 L874.725035,47.563 L874.725035,124 L847.607035,124 L847.607035,115.507 C841.845672,122.75837 834.048084,126.384 824.214035,126.384 C818.65134,126.384 813.535725,125.365844 808.867035,123.3295 C804.198345,121.293156 800.125719,118.437352 796.649035,114.762 C793.172351,111.086648 790.465544,106.765691 788.528535,101.799 C786.591525,96.8323085 785.623035,91.418696 785.623035,85.558 C785.623035,80.0946393 786.566692,74.9045246 788.454035,69.9875 C790.341377,65.0704754 792.973684,60.7743517 796.351035,57.099 C799.728385,53.4236483 803.751345,50.5181773 808.420035,48.3825 C813.088725,46.2468227 818.254006,45.179 823.916035,45.179 C833.452082,45.179 841.349003,48.5066334 847.607035,55.162 L847.607035,47.563 Z M945.258543,86.005 C945.258543,83.6209881 944.811548,81.3611773 943.917543,79.2255 C943.023539,77.0898227 941.781885,75.2273413 940.192543,73.638 C938.603202,72.0486587 936.765554,70.7821714 934.679543,69.8385 C932.593533,68.8948286 930.308889,68.423 927.825543,68.423 C925.441531,68.423 923.206554,68.8699955 921.120543,69.764 C919.034533,70.6580045 917.221718,71.8996587 915.682043,73.489 C914.142369,75.0783413 912.900715,76.9408227 911.957043,79.0765 C911.013372,81.2121773 910.541543,83.4719881 910.541543,85.856 C910.541543,88.2400119 910.988539,90.4749896 911.882543,92.561 C912.776548,94.6470104 914.018202,96.4598256 915.607543,97.9995 C917.196885,99.5391744 919.059366,100.780829 921.195043,101.7245 C923.330721,102.668171 925.590531,103.14 927.974543,103.14 C930.358555,103.14 932.593533,102.693004 934.679543,101.799 C936.765554,100.904996 938.578369,99.6633413 940.118043,98.074 C941.657718,96.4846587 942.899372,94.6470104 943.843043,92.561 C944.786715,90.4749896 945.258543,88.2896781 945.258543,86.005 Z M911.286543,0.33 L911.286543,55.162 C917.643908,48.5066334 925.590496,45.179 935.126543,45.179 C940.788572,45.179 945.978686,46.2468227 950.697043,48.3825 C955.4154,50.5181773 959.43836,53.3988152 962.766043,57.0245 C966.093727,60.6501848 968.7012,64.9214754 970.588543,69.8385 C972.475886,74.7555246 973.419543,79.9953055 973.419543,85.558 C973.419543,91.2200283 972.451053,96.5343085 970.514043,101.501 C968.577034,106.467691 965.870227,110.788648 962.393543,114.464 C958.916859,118.139352 954.8194,121.044823 950.101043,123.1805 C945.382686,125.316177 940.291904,126.384 934.828543,126.384 C924.89516,126.384 917.047905,122.75837 911.286543,115.507 L911.286543,124 L884.317543,124 L884.317543,0.33 L911.286543,0.33 Z M1007.00105,47.563 L1007.00105,124 L980.032052,124 L980.032052,47.563 L1007.00105,47.563 Z M978.244052,18.21 C978.244052,16.1239896 978.641381,14.1621759 979.436052,12.3245 C980.230723,10.4868241 981.323378,8.87267362 982.714052,7.482 C984.104726,6.09132638 985.718876,4.99867064 987.556552,4.204 C989.394228,3.40932936 991.356041,3.012 993.442052,3.012 C995.528062,3.012 997.489876,3.40932936 999.327552,4.204 C1001.16523,4.99867064 1002.77938,6.09132638 1004.17005,7.482 C1005.56073,8.87267362 1006.65338,10.4868241 1007.44805,12.3245 C1008.24272,14.1621759 1008.64005,16.1239896 1008.64005,18.21 C1008.64005,20.2960104 1008.24272,22.2578241 1007.44805,24.0955 C1006.65338,25.9331759 1005.56073,27.5473264 1004.17005,28.938 C1002.77938,30.3286736 1001.16523,31.4213294 999.327552,32.216 C997.489876,33.0106706 995.528062,33.408 993.442052,33.408 C991.356041,33.408 989.394228,33.0106706 987.556552,32.216 C985.718876,31.4213294 984.104726,30.3286736 982.714052,28.938 C981.323378,27.5473264 980.230723,25.9331759 979.436052,24.0955 C978.641381,22.2578241 978.244052,20.2960104 978.244052,18.21 Z M1043.71156,0.33 L1043.71156,124 L1016.74256,124 L1016.74256,0.33 L1043.71156,0.33 Z M1080.42207,47.563 L1080.42207,124 L1053.45307,124 L1053.45307,47.563 L1080.42207,47.563 Z M1051.66507,18.21 C1051.66507,16.1239896 1052.0624,14.1621759 1052.85707,12.3245 C1053.65174,10.4868241 1054.7444,8.87267362 1056.13507,7.482 C1057.52574,6.09132638 1059.13989,4.99867064 1060.97757,4.204 C1062.81525,3.40932936 1064.77706,3.012 1066.86307,3.012 C1068.94908,3.012 1070.91089,3.40932936 1072.74857,4.204 C1074.58625,4.99867064 1076.2004,6.09132638 1077.59107,7.482 C1078.98174,8.87267362 1080.0744,10.4868241 1080.86907,12.3245 C1081.66374,14.1621759 1082.06107,16.1239896 1082.06107,18.21 C1082.06107,20.2960104 1081.66374,22.2578241 1080.86907,24.0955 C1080.0744,25.9331759 1078.98174,27.5473264 1077.59107,28.938 C1076.2004,30.3286736 1074.58625,31.4213294 1072.74857,32.216 C1070.91089,33.0106706 1068.94908,33.408 1066.86307,33.408 C1064.77706,33.408 1062.81525,33.0106706 1060.97757,32.216 C1059.13989,31.4213294 1057.52574,30.3286736 1056.13507,28.938 C1054.7444,27.5473264 1053.65174,25.9331759 1052.85707,24.0955 C1052.0624,22.2578241 1051.66507,20.2960104 1051.66507,18.21 Z M1120.26158,70.062 L1120.26158,124 L1093.29258,124 L1093.29258,70.062 L1084.35258,70.062 L1084.35258,47.563 L1093.29258,47.563 L1093.29258,24.617 L1120.26158,24.617 L1120.26158,47.563 L1135.60858,47.563 L1135.60858,70.062 L1120.26158,70.062 Z M1164.72009,113.57 L1127.76809,47.563 L1159.05809,47.563 L1179.47109,86.75 L1199.28809,47.563 L1230.28009,47.563 L1168.89209,162.144 L1138.64509,162.144 L1164.72009,113.57 Z M445.975,256.352 L452.382,256.352 C459.732703,256.352 464.997317,255.408343 468.176,253.521 C471.354683,251.633657 472.944,248.604021 472.944,244.432 C472.944,240.259979 471.354683,237.230343 468.176,235.343 C464.997317,233.455657 459.732703,232.512 452.382,232.512 L445.975,232.512 L445.975,256.352 Z M445.975,210.758 L451.339,210.758 C460.477712,210.758 465.047,207.13237 465.047,199.881 C465.047,192.62963 460.477712,189.004 451.339,189.004 L445.975,189.004 L445.975,210.758 Z M416.771,166.654 L460.279,166.654 C470.609718,166.654 478.456973,169.137308 483.821,174.104 C489.185027,179.070691 491.867,186.22262 491.867,195.56 C491.867,201.222028 490.848844,205.915481 488.8125,209.6405 C486.776156,213.365519 483.672021,216.51932 479.5,219.102 C483.672021,219.896671 487.223152,221.113492 490.1535,222.7525 C493.083848,224.391508 495.467824,226.402988 497.3055,228.787 C499.143176,231.171012 500.459329,233.852985 501.254,236.833 C502.048671,239.813015 502.446,242.99165 502.446,246.369 C502.446,251.633693 501.527176,256.302313 499.6895,260.375 C497.851824,264.447687 495.269183,267.874653 491.9415,270.656 C488.613817,273.437347 484.566024,275.523326 479.798,276.914 C475.029976,278.304674 469.66603,279 463.706,279 L416.771,279 L416.771,166.654 Z M535.580509,202.563 L535.580509,245.624 C535.580509,255.060714 540.149796,259.779 549.288509,259.779 C558.427221,259.779 562.996509,255.060714 562.996509,245.624 L562.996509,202.563 L589.965509,202.563 L589.965509,250.839 C589.965509,261.169718 586.563376,268.917641 579.759009,274.083 C572.954641,279.248359 562.79791,281.831 549.288509,281.831 C535.779108,281.831 525.622376,279.248359 518.818009,274.083 C512.013641,268.917641 508.611509,261.169718 508.611509,250.839 L508.611509,202.563 L535.580509,202.563 Z M629.656017,225.062 L629.656017,279 L602.687017,279 L602.687017,225.062 L593.747017,225.062 L593.747017,202.563 L602.687017,202.563 L602.687017,179.617 L629.656017,179.617 L629.656017,202.563 L645.003017,202.563 L645.003017,225.062 L629.656017,225.062 Z M680.521526,225.062 L680.521526,279 L653.552526,279 L653.552526,225.062 L644.612526,225.062 L644.612526,202.563 L653.552526,202.563 L653.552526,179.617 L680.521526,179.617 L680.521526,202.563 L695.868526,202.563 L695.868526,225.062 L680.521526,225.062 Z M724.086035,240.409 C724.086035,242.99168 724.557863,245.350823 725.501535,247.4865 C726.445206,249.622177 727.68686,251.484659 729.226535,253.074 C730.766209,254.663341 732.603857,255.904996 734.739535,256.799 C736.875212,257.693004 739.135023,258.14 741.519035,258.14 C743.903047,258.14 746.162857,257.693004 748.298535,256.799 C750.434212,255.904996 752.27186,254.663341 753.811535,253.074 C755.351209,251.484659 756.592863,249.622177 757.536535,247.4865 C758.480206,245.350823 758.952035,243.041346 758.952035,240.558 C758.952035,238.173988 758.480206,235.914177 757.536535,233.7785 C756.592863,231.642823 755.351209,229.780341 753.811535,228.191 C752.27186,226.601659 750.434212,225.360004 748.298535,224.466 C746.162857,223.571996 743.903047,223.125 741.519035,223.125 C739.135023,223.125 736.875212,223.571996 734.739535,224.466 C732.603857,225.360004 730.766209,226.601659 729.226535,228.191 C727.68686,229.780341 726.445206,231.61799 725.501535,233.704 C724.557863,235.79001 724.086035,238.024988 724.086035,240.409 Z M695.627035,240.111 C695.627035,234.448972 696.769357,229.159525 699.054035,224.2425 C701.338713,219.325475 704.517348,215.054185 708.590035,211.4285 C712.662722,207.802815 717.505173,204.94701 723.117535,202.861 C728.729896,200.77499 734.863668,199.732 741.519035,199.732 C748.075067,199.732 754.159173,200.750156 759.771535,202.7865 C765.383896,204.822844 770.251181,207.653815 774.373535,211.2795 C778.495889,214.905185 781.699357,219.226142 783.984035,224.2425 C786.268713,229.258858 787.411035,234.796636 787.411035,240.856 C787.411035,246.915364 786.24388,252.453142 783.909535,257.4695 C781.57519,262.485858 778.371722,266.806815 774.299035,270.4325 C770.226348,274.058185 765.33423,276.864323 759.622535,278.851 C753.910839,280.837677 747.727401,281.831 741.072035,281.831 C734.516002,281.831 728.456729,280.837677 722.894035,278.851 C717.33134,276.864323 712.538555,274.033352 708.515535,270.358 C704.492514,266.682648 701.338713,262.287192 699.054035,257.1715 C696.769357,252.055808 695.627035,246.369031 695.627035,240.111 Z M794.172543,202.563 L821.141543,202.563 L821.141543,212.248 C824.816895,207.777978 828.541858,204.773174 832.316543,203.2335 C836.091229,201.693826 840.511518,200.924 845.577543,200.924 C850.94157,200.924 855.535691,201.793158 859.360043,203.5315 C863.184396,205.269842 866.43753,207.728317 869.119543,210.907 C871.304888,213.48968 872.794873,216.370317 873.589543,219.549 C874.384214,222.727683 874.781543,226.353313 874.781543,230.426 L874.781543,279 L847.812543,279 L847.812543,240.409 C847.812543,236.634314 847.539379,233.579845 846.993043,231.2455 C846.446707,228.911155 845.478217,227.048674 844.087543,225.658 C842.895537,224.465994 841.554551,223.621669 840.064543,223.125 C838.574536,222.628331 836.985218,222.38 835.296543,222.38 C830.727187,222.38 827.225722,223.74582 824.792043,226.4775 C822.358364,229.20918 821.141543,233.107975 821.141543,238.174 L821.141543,279 L794.172543,279 L794.172543,202.563 Z M935.034052,222.231 C930.06736,219.64832 925.200076,218.357 920.432052,218.357 C917.948706,218.357 915.937226,218.853662 914.397552,219.847 C912.857878,220.840338 912.088052,222.181325 912.088052,223.87 C912.088052,224.764004 912.212217,225.484164 912.460552,226.0305 C912.708886,226.576836 913.255214,227.098331 914.099552,227.595 C914.943889,228.091669 916.185544,228.538665 917.824552,228.936 C919.46356,229.333335 921.624039,229.829997 924.306052,230.426 C931.756089,231.916007 937.3187,234.573148 940.994052,238.3975 C944.669404,242.221852 946.507052,247.11397 946.507052,253.074 C946.507052,257.544022 945.613061,261.566982 943.825052,265.143 C942.037043,268.719018 939.553734,271.723821 936.375052,274.1575 C933.196369,276.591179 929.372074,278.478493 924.902052,279.8195 C920.43203,281.160507 915.515079,281.831 910.151052,281.831 C899.820334,281.831 889.638769,278.900696 879.606052,273.04 L889.440052,253.968 C896.989423,259.133359 904.141351,261.716 910.896052,261.716 C913.379398,261.716 915.415711,261.169672 917.005052,260.077 C918.594393,258.984328 919.389052,257.593675 919.389052,255.905 C919.389052,254.911662 919.264886,254.09217 919.016552,253.4465 C918.768217,252.80083 918.246723,252.204836 917.452052,251.6585 C916.657381,251.112164 915.490226,250.615502 913.950552,250.1685 C912.410878,249.721498 910.399398,249.249669 907.916052,248.753 C899.57201,247.064325 893.736235,244.556183 890.408552,241.2285 C887.080869,237.900817 885.417052,233.306696 885.417052,227.446 C885.417052,223.174645 886.211711,219.325517 887.801052,215.8985 C889.390393,212.471483 891.675037,209.566012 894.655052,207.182 C897.635067,204.797988 901.235864,202.96034 905.457552,201.669 C909.67924,200.37766 914.372693,199.732 919.538052,199.732 C927.981427,199.732 936.176346,201.370984 944.123052,204.649 L935.034052,222.231 Z" id="Readability-Buttons"></path>
            </g>
        </g>
    </g>
</svg>